<?xml version="1.0" standalone="no"?><!DOCTYPE svg PUBLIC "-//W3C//DTD SVG 1.1//EN" "http://www.w3.org/Graphics/SVG/1.1/DTD/svg11.dtd"><svg t="1588215914703" class="icon" viewBox="0 0 1024 1024" version="1.1" xmlns="http://www.w3.org/2000/svg" p-id="2153" width="22" height="22" xmlns:xlink="http://www.w3.org/1999/xlink"><defs><style type="text/css"></style></defs><path d="M128 128h768a64 64 0 0 1 64 64v640a64 64 0 0 1-64 64H128a64 64 0 0 1-64-64V192a64 64 0 0 1 64-64z m32 64a32 32 0 0 0-32 32v576a32 32 0 0 0 32 32h704a32 32 0 0 0 32-32V224a32 32 0 0 0-32-32H160z m64 64h192a32 32 0 0 1 32 32v192a32 32 0 0 1-32 32H224a32 32 0 0 1-32-32V288a32 32 0 0 1 32-32z" fill="#c1bebe" p-id="2154"></path></svg>
